<?xml version="1.0" encoding="UTF-8"?>
<svg xmlns="http://www.w3.org/2000/svg" xmlns:xlink="http://www.w3.org/1999/xlink" fill-opacity="1" color-rendering="auto" color-interpolation="auto" stroke="black" text-rendering="auto" stroke-linecap="square" width="932" stroke-miterlimit="10" stroke-opacity="1" shape-rendering="auto" fill="black" stroke-dasharray="none" font-weight="normal" stroke-width="1" height="248" font-family="'Dialog'" font-style="normal" stroke-linejoin="miter" font-size="12" stroke-dashoffset="0" image-rendering="auto">
  <!--Generated by ySVG-->
  <defs id="genericDefs"/>
  <g>
    <defs id="defs1">
      <clipPath clipPathUnits="userSpaceOnUse" id="clipPath1">
        <path d="M0 0 L932 0 L932 248 L0 248 L0 0 Z"/>
      </clipPath>
      <clipPath clipPathUnits="userSpaceOnUse" id="clipPath2">
        <path d="M-98 -119 L834 -119 L834 129 L-98 129 L-98 -119 Z"/>
      </clipPath>
    </defs>
    <g fill="rgb(149,209,111)" transform="matrix(1,0,0,1,98,119)" stroke="rgb(149,209,111)">
      <rect x="11" y="-104" clip-path="url(#clipPath2)" width="146" rx="4" ry="4" height="69" stroke="none"/>
    </g>
    <g font-size="18" stroke-miterlimit="1.45" font-family="'Arial'" transform="matrix(1,0,0,1,98,119)" stroke-linecap="butt">
      <text x="39.4702" xml:space="preserve" y="-63.2598" clip-path="url(#clipPath2)" stroke="none">Executable</text>
    </g>
    <g fill="rgb(0,112,66)" stroke-width="3" stroke-miterlimit="1.45" transform="matrix(1,0,0,1,98,119)" stroke-linecap="butt" stroke="rgb(0,112,66)">
      <rect x="11" y="-104" clip-path="url(#clipPath2)" fill="none" width="146" rx="4" ry="4" height="69"/>
    </g>
    <g fill="rgb(149,209,111)" transform="matrix(1,0,0,1,98,119)" stroke="rgb(149,209,111)">
      <rect x="484" y="-104" clip-path="url(#clipPath2)" width="146" rx="4" ry="4" height="69" stroke="none"/>
    </g>
    <g font-size="18" stroke-miterlimit="1.45" font-family="'Arial'" transform="matrix(1,0,0,1,98,119)" stroke-linecap="butt">
      <text x="529.4902" xml:space="preserve" y="-63.2598" clip-path="url(#clipPath2)" stroke="none">Library</text>
    </g>
    <g fill="rgb(0,112,66)" stroke-width="3" stroke-miterlimit="1.45" transform="matrix(1,0,0,1,98,119)" stroke-linecap="butt" stroke="rgb(0,112,66)">
      <rect x="484" y="-104" clip-path="url(#clipPath2)" fill="none" width="146" rx="4" ry="4" height="69"/>
    </g>
    <g fill="rgb(149,209,111)" transform="matrix(1,0,0,1,98,119)" stroke="rgb(149,209,111)">
      <rect x="106" y="44.5" clip-path="url(#clipPath2)" width="146" rx="4" ry="4" height="69" stroke="none"/>
    </g>
    <g font-size="18" stroke-miterlimit="1.45" font-family="'Arial'" transform="matrix(1,0,0,1,98,119)" stroke-linecap="butt">
      <text x="125.479" xml:space="preserve" y="75.1855" clip-path="url(#clipPath2)" stroke="none">Windows x64</text>
      <text x="154.4873" xml:space="preserve" y="95.2949" clip-path="url(#clipPath2)" stroke="none">binary</text>
    </g>
    <g fill="rgb(0,112,66)" stroke-width="3" stroke-miterlimit="1.45" transform="matrix(1,0,0,1,98,119)" stroke-linecap="butt" stroke="rgb(0,112,66)">
      <rect x="106" y="44.5" clip-path="url(#clipPath2)" fill="none" width="146" rx="4" ry="4" height="69"/>
    </g>
    <g fill="rgb(149,209,111)" transform="matrix(1,0,0,1,98,119)" stroke="rgb(149,209,111)">
      <rect x="-83" y="44.5" clip-path="url(#clipPath2)" width="146" rx="4" ry="4" height="69" stroke="none"/>
    </g>
    <g font-size="18" stroke-miterlimit="1.45" font-family="'Arial'" transform="matrix(1,0,0,1,98,119)" stroke-linecap="butt">
      <text x="-61.5347" xml:space="preserve" y="75.1855" clip-path="url(#clipPath2)" stroke="none">Linux amd64</text>
      <text x="-34.5127" xml:space="preserve" y="95.2949" clip-path="url(#clipPath2)" stroke="none">binary</text>
    </g>
    <g fill="rgb(0,112,66)" stroke-width="3" stroke-miterlimit="1.45" transform="matrix(1,0,0,1,98,119)" stroke-linecap="butt" stroke="rgb(0,112,66)">
      <rect x="-83" y="44.5" clip-path="url(#clipPath2)" fill="none" width="146" rx="4" ry="4" height="69"/>
    </g>
    <g fill="rgb(149,209,111)" transform="matrix(1,0,0,1,98,119)" stroke="rgb(149,209,111)">
      <rect x="295" y="44.5" clip-path="url(#clipPath2)" width="146" rx="4" ry="4" height="69" stroke="none"/>
    </g>
    <g font-size="18" stroke-miterlimit="1.45" font-family="'Arial'" transform="matrix(1,0,0,1,98,119)" stroke-linecap="butt">
      <text x="316.4653" xml:space="preserve" y="75.1855" clip-path="url(#clipPath2)" stroke="none">Linux amd64</text>
      <text x="319.981" xml:space="preserve" y="95.2949" clip-path="url(#clipPath2)" stroke="none">static binary</text>
    </g>
    <g fill="rgb(0,112,66)" stroke-width="3" stroke-miterlimit="1.45" transform="matrix(1,0,0,1,98,119)" stroke-linecap="butt" stroke="rgb(0,112,66)">
      <rect x="295" y="44.5" clip-path="url(#clipPath2)" fill="none" width="146" rx="4" ry="4" height="69"/>
    </g>
    <g fill="rgb(149,209,111)" transform="matrix(1,0,0,1,98,119)" stroke="rgb(149,209,111)">
      <rect x="484" y="44.5" clip-path="url(#clipPath2)" width="146" rx="4" ry="4" height="69" stroke="none"/>
    </g>
    <g font-size="18" stroke-miterlimit="1.45" font-family="'Arial'" transform="matrix(1,0,0,1,98,119)" stroke-linecap="butt">
      <text x="505.4653" xml:space="preserve" y="75.1855" clip-path="url(#clipPath2)" stroke="none">Linux amd64</text>
      <text x="502.4683" xml:space="preserve" y="95.2949" clip-path="url(#clipPath2)" stroke="none">shared binary</text>
    </g>
    <g fill="rgb(0,112,66)" stroke-width="3" stroke-miterlimit="1.45" transform="matrix(1,0,0,1,98,119)" stroke-linecap="butt" stroke="rgb(0,112,66)">
      <rect x="484" y="44.5" clip-path="url(#clipPath2)" fill="none" width="146" rx="4" ry="4" height="69"/>
    </g>
    <g fill="rgb(149,209,111)" transform="matrix(1,0,0,1,98,119)" stroke="rgb(149,209,111)">
      <rect x="673" y="44.5" clip-path="url(#clipPath2)" width="146" rx="4" ry="4" height="69" stroke="none"/>
    </g>
    <g font-size="18" stroke-miterlimit="1.45" font-family="'Arial'" transform="matrix(1,0,0,1,98,119)" stroke-linecap="butt">
      <text x="685.9751" xml:space="preserve" y="75.1855" clip-path="url(#clipPath2)" stroke="none">OS X universal</text>
      <text x="691.4683" xml:space="preserve" y="95.2949" clip-path="url(#clipPath2)" stroke="none">shared binary</text>
    </g>
    <g fill="rgb(0,112,66)" stroke-width="3" stroke-miterlimit="1.45" transform="matrix(1,0,0,1,98,119)" stroke-linecap="butt" stroke="rgb(0,112,66)">
      <rect x="673" y="44.5" clip-path="url(#clipPath2)" fill="none" width="146" rx="4" ry="4" height="69"/>
      <path fill="none" d="M106.0569 -35.0216 L149.5257 32.9269" clip-path="url(#clipPath2)"/>
      <path d="M156.9354 44.5096 L155.1698 27.8323 L142.5342 35.9157 Z" clip-path="url(#clipPath2)" stroke="none"/>
      <path fill="none" d="M62.1753 -35.0216 L19.1865 32.8915" clip-path="url(#clipPath2)"/>
      <path d="M11.8323 44.5096 L26.1922 35.8467 L13.5179 27.824 Z" clip-path="url(#clipPath2)" stroke="none"/>
      <path fill="none" d="M513.0953 -35.0035 L422.7018 36.02" clip-path="url(#clipPath2)"/>
      <path d="M411.8899 44.5151 L428.3184 41.1451 L419.0511 29.3504 Z" clip-path="url(#clipPath2)" stroke="none"/>
      <path fill="none" d="M557 -35.0216 L557 30.7596" clip-path="url(#clipPath2)"/>
      <path d="M557 44.5096 L564.5 29.5096 L549.5 29.5096 Z" clip-path="url(#clipPath2)" stroke="none"/>
      <path fill="none" d="M600.9047 -35.0035 L691.2982 36.02" clip-path="url(#clipPath2)"/>
      <path d="M702.1101 44.5151 L694.949 29.3504 L685.6816 41.1451 Z" clip-path="url(#clipPath2)" stroke="none"/>
    </g>
  </g>
</svg>
