<?xml version="1.0" encoding="UTF-8"?>
<svg xmlns="http://www.w3.org/2000/svg" xmlns:xlink="http://www.w3.org/1999/xlink" fill-opacity="1" color-rendering="auto" color-interpolation="auto" stroke="black" text-rendering="auto" stroke-linecap="square" width="984" stroke-miterlimit="10" stroke-opacity="1" shape-rendering="auto" fill="black" stroke-dasharray="none" font-weight="normal" stroke-width="1" height="464" font-family="'Dialog'" font-style="normal" stroke-linejoin="miter" font-size="12" stroke-dashoffset="0" image-rendering="auto">
  <!--Generated by ySVG-->
  <defs id="genericDefs"/>
  <g>
    <defs id="defs1">
      <clipPath clipPathUnits="userSpaceOnUse" id="clipPath1">
        <path d="M0 0 L984 0 L984 464 L0 464 L0 0 Z"/>
      </clipPath>
      <clipPath clipPathUnits="userSpaceOnUse" id="clipPath2">
        <path d="M32 138 L1016 138 L1016 602 L32 602 L32 138 Z"/>
      </clipPath>
    </defs>
    <g font-size="24" stroke-miterlimit="1.45" font-family="'Arial'" transform="matrix(1,0,0,1,-32,-138)" stroke-linecap="butt">
      <text x="384.1585" xml:space="preserve" y="181.2045" clip-path="url(#clipPath2)" stroke="none">Util library</text>
    </g>
    <g fill="rgb(153,153,153)" stroke-miterlimit="1.45" transform="matrix(1,0,0,1,-32,-138)" stroke-linecap="butt" stroke="rgb(153,153,153)">
      <rect x="47.8703" y="153.4779" clip-path="url(#clipPath2)" fill="none" width="448.964" rx="4" ry="4" height="432.5234"/>
    </g>
    <g fill="rgb(149,209,111)" transform="matrix(1,0,0,1,-32,-138)" stroke="rgb(149,209,111)">
      <rect x="577.5" y="180" clip-path="url(#clipPath2)" width="146" rx="4" ry="4" height="69" stroke="none"/>
    </g>
    <g font-size="18" stroke-miterlimit="1.45" font-family="'Arial'" transform="matrix(1,0,0,1,-32,-138)" stroke-linecap="butt">
      <text x="584.4766" xml:space="preserve" y="220.7402" clip-path="url(#clipPath2)" stroke="none">Windows source</text>
    </g>
    <g fill="rgb(0,112,66)" stroke-width="3" stroke-miterlimit="1.45" transform="matrix(1,0,0,1,-32,-138)" stroke-linecap="butt" stroke="rgb(0,112,66)">
      <rect x="577.5" y="180" clip-path="url(#clipPath2)" fill="none" width="146" rx="4" ry="4" height="69"/>
    </g>
    <g fill="rgb(149,209,111)" transform="matrix(1,0,0,1,-32,-138)" stroke="rgb(149,209,111)">
      <rect x="577.5" y="377" clip-path="url(#clipPath2)" width="146" rx="4" ry="4" height="69" stroke="none"/>
    </g>
    <g font-size="18" stroke-miterlimit="1.45" font-family="'Arial'" transform="matrix(1,0,0,1,-32,-138)" stroke-linecap="butt">
      <text x="601.479" xml:space="preserve" y="417.7402" clip-path="url(#clipPath2)" stroke="none">Main source</text>
    </g>
    <g fill="rgb(0,112,66)" stroke-width="3" stroke-miterlimit="1.45" transform="matrix(1,0,0,1,-32,-138)" stroke-linecap="butt" stroke="rgb(0,112,66)">
      <rect x="577.5" y="377" clip-path="url(#clipPath2)" fill="none" width="146" rx="4" ry="4" height="69"/>
    </g>
    <g fill="rgb(149,209,111)" transform="matrix(1,0,0,1,-32,-138)" stroke="rgb(149,209,111)">
      <rect x="86.7197" y="377" clip-path="url(#clipPath2)" width="146" rx="4" ry="4" height="69" stroke="none"/>
    </g>
    <g font-size="18" stroke-miterlimit="1.45" font-family="'Arial'" transform="matrix(1,0,0,1,-32,-138)" stroke-linecap="butt">
      <text x="112.207" xml:space="preserve" y="417.7402" clip-path="url(#clipPath2)" stroke="none">Util source</text>
    </g>
    <g fill="rgb(0,112,66)" stroke-width="3" stroke-miterlimit="1.45" transform="matrix(1,0,0,1,-32,-138)" stroke-linecap="butt" stroke="rgb(0,112,66)">
      <rect x="86.7197" y="377" clip-path="url(#clipPath2)" fill="none" width="146" rx="4" ry="4" height="69"/>
    </g>
    <g fill="rgb(149,209,111)" transform="matrix(1,0,0,1,-32,-138)" stroke="rgb(149,209,111)">
      <rect x="787" y="263" clip-path="url(#clipPath2)" width="146" rx="4" ry="4" height="69" stroke="none"/>
    </g>
    <g font-size="18" stroke-miterlimit="1.45" font-family="'Arial'" transform="matrix(1,0,0,1,-32,-138)" stroke-linecap="butt">
      <text x="818.4902" xml:space="preserve" y="293.6855" clip-path="url(#clipPath2)" stroke="none">Windows</text>
      <text x="811.4678" xml:space="preserve" y="313.7949" clip-path="url(#clipPath2)" stroke="none">executable</text>
    </g>
    <g fill="rgb(0,112,66)" stroke-width="3" stroke-miterlimit="1.45" transform="matrix(1,0,0,1,-32,-138)" stroke-linecap="butt" stroke="rgb(0,112,66)">
      <rect x="787" y="263" clip-path="url(#clipPath2)" fill="none" width="146" rx="4" ry="4" height="69"/>
    </g>
    <g fill="rgb(149,209,111)" transform="matrix(1,0,0,1,-32,-138)" stroke="rgb(149,209,111)">
      <rect x="787" y="478" clip-path="url(#clipPath2)" width="146" rx="4" ry="4" height="69" stroke="none"/>
    </g>
    <g font-size="18" stroke-miterlimit="1.45" font-family="'Arial'" transform="matrix(1,0,0,1,-32,-138)" stroke-linecap="butt">
      <text x="787.4517" xml:space="preserve" y="518.7402" clip-path="url(#clipPath2)" stroke="none">Linux executable</text>
    </g>
    <g fill="rgb(0,112,66)" stroke-width="3" stroke-miterlimit="1.45" transform="matrix(1,0,0,1,-32,-138)" stroke-linecap="butt" stroke="rgb(0,112,66)">
      <rect x="787" y="478" clip-path="url(#clipPath2)" fill="none" width="146" rx="4" ry="4" height="69"/>
    </g>
    <g fill="rgb(149,209,111)" transform="matrix(1,0,0,1,-32,-138)" stroke="rgb(149,209,111)">
      <rect x="313.7197" y="478" clip-path="url(#clipPath2)" width="146" rx="4" ry="4" height="69" stroke="none"/>
    </g>
    <g font-size="18" stroke-miterlimit="1.45" font-family="'Arial'" transform="matrix(1,0,0,1,-32,-138)" stroke-linecap="butt">
      <text x="330.185" xml:space="preserve" y="508.6855" clip-path="url(#clipPath2)" stroke="none">Linux shared</text>
      <text x="357.2158" xml:space="preserve" y="528.7949" clip-path="url(#clipPath2)" stroke="none">library</text>
    </g>
    <g fill="rgb(0,112,66)" stroke-width="3" stroke-miterlimit="1.45" transform="matrix(1,0,0,1,-32,-138)" stroke-linecap="butt" stroke="rgb(0,112,66)">
      <rect x="313.7197" y="478" clip-path="url(#clipPath2)" fill="none" width="146" rx="4" ry="4" height="69"/>
    </g>
    <g fill="rgb(149,209,111)" transform="matrix(1,0,0,1,-32,-138)" stroke="rgb(149,209,111)">
      <rect x="308.7197" y="270" clip-path="url(#clipPath2)" width="146" rx="4" ry="4" height="69" stroke="none"/>
    </g>
    <g font-size="18" stroke-miterlimit="1.45" font-family="'Arial'" transform="matrix(1,0,0,1,-32,-138)" stroke-linecap="butt">
      <text x="310.1909" xml:space="preserve" y="300.6855" clip-path="url(#clipPath2)" stroke="none">Windows shared</text>
      <text x="352.2158" xml:space="preserve" y="320.7949" clip-path="url(#clipPath2)" stroke="none">library</text>
    </g>
    <g fill="rgb(0,112,66)" stroke-width="3" stroke-miterlimit="1.45" transform="matrix(1,0,0,1,-32,-138)" stroke-linecap="butt" stroke="rgb(0,112,66)">
      <rect x="308.7197" y="270" clip-path="url(#clipPath2)" fill="none" width="146" rx="4" ry="4" height="69"/>
    </g>
    <g font-size="24" stroke-miterlimit="1.45" font-family="'Arial'" transform="matrix(1,0,0,1,-32,-138)" stroke-linecap="butt">
      <text x="834.6153" xml:space="preserve" y="181.2045" clip-path="url(#clipPath2)" stroke="none">CLI executable</text>
    </g>
    <g fill="rgb(153,153,153)" stroke-miterlimit="1.45" transform="matrix(1,0,0,1,-32,-138)" stroke-linecap="butt" stroke="rgb(153,153,153)">
      <rect x="551.7528" y="153.4779" clip-path="url(#clipPath2)" fill="none" width="448.964" rx="4" ry="4" height="432.5234"/>
      <path fill="none" stroke-width="3" d="M713.8973 377.0022 L784.5374 338.5632" clip-path="url(#clipPath2)" stroke="rgb(0,112,66)"/>
      <path fill="rgb(0,112,66)" stroke-width="3" d="M796.6151 331.9911 L779.8547 332.5728 L787.0242 345.7485 Z" clip-path="url(#clipPath2)" stroke="none"/>
      <path fill="none" stroke-width="3" d="M723.513 243.4264 L774.2081 263.5109" clip-path="url(#clipPath2)" stroke="rgb(0,112,66)"/>
      <path fill="rgb(0,112,66)" stroke-width="3" d="M786.9915 268.5754 L775.8085 256.0777 L770.2836 270.0232 Z" clip-path="url(#clipPath2)" stroke="none"/>
      <path fill="none" stroke-width="3" d="M721.2625 445.6146 L776.8568 472.4166" clip-path="url(#clipPath2)" stroke="rgb(0,112,66)"/>
      <path fill="rgb(0,112,66)" stroke-width="3" d="M789.2426 478.3878 L778.9878 465.1179 L772.4738 478.6297 Z" clip-path="url(#clipPath2)" stroke="none"/>
      <path fill="none" stroke-width="3" d="M232.2921 443.7899 L301.5806 474.6187" clip-path="url(#clipPath2)" stroke="rgb(0,112,66)"/>
      <path fill="rgb(0,112,66)" stroke-width="3" d="M314.1432 480.2083 L303.4874 467.2583 L297.3897 480.963 Z" clip-path="url(#clipPath2)" stroke="none"/>
      <path fill="none" stroke-width="3" d="M459.7165 512.5 L773.2979 512.5" clip-path="url(#clipPath2)" stroke="rgb(0,112,66)"/>
      <path fill="rgb(0,112,66)" stroke-width="3" d="M787.0479 512.5 L772.0479 505 L772.0479 520 Z" clip-path="url(#clipPath2)" stroke="none"/>
      <path fill="none" stroke-width="3" d="M230.4768 377.3964 L298.6229 344.5512" clip-path="url(#clipPath2)" stroke="rgb(0,112,66)"/>
      <path fill="rgb(0,112,66)" stroke-width="3" d="M311.0092 338.5812 L294.2405 338.3377 L300.7532 351.8501 Z" clip-path="url(#clipPath2)" stroke="none"/>
      <path fill="none" stroke-width="3" d="M454.7287 303.4315 L773.2809 298.7692" clip-path="url(#clipPath2)" stroke="rgb(0,112,66)"/>
      <path fill="rgb(0,112,66)" stroke-width="3" d="M787.0294 298.568 L771.9213 291.2883 L772.1407 306.2867 Z" clip-path="url(#clipPath2)" stroke="none"/>
    </g>
  </g>
</svg>
